<svg width="401px" height="240px" viewBox="0 0 401 240" version="1.1" xmlns="http://www.w3.org/2000/svg"
     xmlns:xlink="http://www.w3.org/1999/xlink" class="[ erroricon ] block absolute bottom-0 left-50p
					transform -translate-x-50p w-240 h-120 m-auto
					lg:bottom-90" data-v-6cf4d33e="">
    <defs>
        <polygon id="path-1"
                 points="0 0.00595585284 206.422202 0.00595585284 206.422202 134.264364 0 134.264364"></polygon>
        <polygon id="path-3" points="0 168 276.530451 168 276.530451 0.0056187291 0 0.0056187291"></polygon>
    </defs>
    <g stroke="none" stroke-width="1" fill="none" fill-rule="evenodd">
        <g transform="translate(-520.000000, -288.000000)">
            <g transform="translate(0.000000, 194.000000)">
                <g transform="translate(520.000000, 94.000000)">
                    <path d="M180.247126,98 C192.593757,98 202.603,88.0581496 202.603,75.7946495 C202.603,63.5304246 192.593757,53.5892991 180.247126,53.5892991 C177.779843,53.5892991 175.409616,53.9923079 173.190448,54.7243922 C174.041336,51.3154886 174.501078,47.7521948 174.501078,44.0809006 C174.501078,19.7358343 154.63146,0 130.121365,0 C106.459969,0 87.1289061,18.393438 85.8175463,41.5693439 C79.8992783,35.9569388 71.887359,32.5030953 63.0588502,32.5030953 C44.8494121,32.5030953 30.0880401,47.1643529 30.0880401,65.2511853 C20.983686,65.2511853 13.603,72.5821764 13.603,81.6252302 C13.603,90.6690088 20.983686,98 30.0880401,98 L180.247126,98 Z"
                          fill="#CCDDF2"></path>
                    <path d="M92.0181702,174.747591 C90.8662488,174.747591 89.7544259,174.918086 88.7031154,175.232733 C89.2586623,173.682182 89.5634111,172.011626 89.5634111,170.269361 C89.5634111,162.166104 83.0178729,155.596569 74.9434871,155.596569 C72.396866,155.596569 70.0040773,156.250742 67.9189538,157.400301 C64.4668349,149.511444 56.618459,144 47.484743,144 C35.3720707,144 25.5216846,153.687467 25.1870441,165.763324 C22.8955954,164.604252 20.3081466,163.947884 17.5668653,163.947884 C8.19766155,163.947884 0.603,171.570389 0.603,180.974674 C0.603,190.377495 8.19766155,198 17.5668653,198 L92.0181702,198 C98.4164374,198 103.603,192.795154 103.603,186.37343 C103.603,179.952437 98.4164374,174.747591 92.0181702,174.747591 L92.0181702,174.747591 Z"
                          fill="#CCDDF2"></path>
                    <path d="M400.603,147.950117 C400.603,157.852421 393.416694,166.371394 383.972064,168 L309.20993,168 C301.694118,168 295.603,161.91335 295.603,154.404682 C295.603,146.896743 301.694118,140.809363 309.20993,140.809363 C310.710609,140.809363 312.153569,141.0561 313.505202,141.504313 C312.987198,139.418004 312.706643,137.236066 312.706643,134.98843 C312.706643,120.083511 324.800474,108 339.718124,108 C354.119961,108 365.885747,119.261543 366.684307,133.451072 C370.286227,130.015013 375.162336,127.899505 380.536723,127.899505 C391.619387,127.899505 400.603,136.876182 400.603,147.950117 L400.603,147.950117 Z"
                          fill="#CCDDF2"></path>
                    <g transform="translate(69.603000, 72.000000)">
                        <polygon fill="#8B1D41"
                                 points="80.1842105 156.363636 126.836842 156.363636 126.836842 134.545455 80.1842105 134.545455"></polygon>
                        <g id="Group-38">
                            <path d="M149.989307,167.953702 L56.4325569,167.953702 C56.4325569,167.953702 60.2947927,156.076832 68.4933171,156.076832 L137.92911,156.076832 C146.154096,156.076832 149.989307,167.953702 149.989307,167.953702"
                                  fill="#C41F3E"></path>
                            <g id="Group-6">
                                <mask id="mask-2" fill="white">
                                    <use xlink:href="#path-1"></use>
                                </mask>
                                <g></g>
                                <path d="M201.020702,134.264364 L5.4012748,134.264364 C2.41902073,134.264364 -0.000225203252,131.85112 -0.000225203252,128.873755 L-0.000225203252,5.39656455 C-0.000225203252,2.4192 2.41902073,0.00595585284 5.4012748,0.00595585284 L201.020702,0.00595585284 C204.003519,0.00595585284 206.422202,2.4192 206.422202,5.39656455 L206.422202,128.873755 C206.422202,131.85112 204.003519,134.264364 201.020702,134.264364"
                                      fill="#C41F3E" mask="url(#mask-2)"></path>
                            </g>
                            <mask id="mask-4" fill="white">
                                <use xlink:href="#path-3"></use>
                            </mask>
                            <g></g>
                            <polygon fill="#FFFFFF" mask="url(#mask-4)"
                                     points="8.94113211 124.125592 197.481295 124.125592 197.481295 10.1446154 8.94113211 10.1446154"></polygon>
                            <path d="M186.815218,24.2818997 L114.466985,24.2818997 C112.525733,24.2818997 110.952125,22.7114649 110.952125,20.7741271 C110.952125,18.8367893 112.525733,17.2663545 114.466985,17.2663545 L186.815218,17.2663545 C188.75647,17.2663545 190.330078,18.8367893 190.330078,20.7741271 C190.330078,22.7114649 188.75647,24.2818997 186.815218,24.2818997"
                                  fill="#F2F3F2" mask="url(#mask-4)"></path>
                            <path d="M186.815218,38.313889 L114.466985,38.313889 C112.525733,38.313889 110.952125,36.7434542 110.952125,34.8055545 C110.952125,32.8687786 112.525733,31.2977819 114.466985,31.2977819 L186.815218,31.2977819 C188.75647,31.2977819 190.330078,32.8687786 190.330078,34.8055545 C190.330078,36.7434542 188.75647,38.313889 186.815218,38.313889"
                                  fill="#F2F3F2" mask="url(#mask-4)"></path>
                            <path d="M186.681616,77.0927278 L114.600249,77.0927278 C112.585242,77.0927278 110.951956,75.4627344 110.951956,73.4517913 L110.951956,48.9704268 C110.951956,46.9600455 112.585242,45.3294903 114.600249,45.3294903 L186.681616,45.3294903 C188.696623,45.3294903 190.329909,46.9600455 190.329909,48.9704268 L190.329909,73.4517913 C190.329909,75.4627344 188.696623,77.0927278 186.681616,77.0927278"
                                  fill="#F2F3F2" mask="url(#mask-4)"></path>
                            <path d="M190.330191,124.125423 L17.7834,124.125423 L17.7834,115.759136 C17.7834,113.748193 19.4166866,112.118761 21.4316927,112.118761 L186.681898,112.118761 C188.696904,112.118761 190.330191,113.748193 190.330191,115.759136 L190.330191,124.125423 Z"
                                  fill="#F2F3F2" mask="url(#mask-4)"></path>
                            <path d="M186.815218,91.1241552 L21.2981472,91.1241552 C19.3568951,91.1241552 17.7832874,89.5537204 17.7832874,87.6169445 C17.7832874,85.6796067 19.3568951,84.1091719 21.2981472,84.1091719 L186.815218,84.1091719 C188.75647,84.1091719 190.330078,85.6796067 190.330078,87.6169445 C190.330078,89.5537204 188.75647,91.1241552 186.815218,91.1241552"
                                  fill="#F2F3F2" mask="url(#mask-4)"></path>
                            <path d="M186.815218,105.156201 L21.2981472,105.156201 C19.3568951,105.156201 17.7832874,103.585766 17.7832874,101.648428 C17.7832874,99.7110903 19.3568951,98.1406555 21.2981472,98.1406555 L186.815218,98.1406555 C188.75647,98.1406555 190.330078,99.7110903 190.330078,101.648428 C190.330078,103.585766 188.75647,105.156201 186.815218,105.156201"
                                  fill="#F2F3F2" mask="url(#mask-4)"></path>
                            <polygon fill="#FFFFFF" mask="url(#mask-4)"
                                     points="197.480732 39.0619666 206.421864 39.0619666 206.421864 37.9382207 197.480732 37.9382207"></polygon>
                            <polygon fill="#FFFFFF" mask="url(#mask-4)"
                                     points="156.352819 77.0927278 155.226803 77.0927278 155.242004 45.3294903 156.36802 45.3294903"></polygon>
                            <polygon fill="#FFFFFF" mask="url(#mask-4)"
                                     points="156.344036 91.1241552 155.21802 91.1241552 155.222524 84.1091719 156.34854 84.1091719"></polygon>
                            <polygon fill="#FFFFFF" mask="url(#mask-4)"
                                     points="156.336886 105.156201 155.21087 105.156201 155.220441 98.1406555 156.346457 98.1406555"></polygon>
                            <polygon fill="#FFFFFF" mask="url(#mask-4)"
                                     points="156.319883 134.264364 155.193867 134.264364 155.206253 112.118705 156.332269 112.118705"></polygon>
                            <path d="M242.383107,167.999776 L161.570609,167.953702 C158.67168,167.952016 156.301416,165.583722 156.303104,162.691762 L156.371792,44.2939023 C156.372918,41.4013806 158.745998,39.0353338 161.644363,39.0375797 L242.456861,39.0836548 C245.355227,39.0853405 247.725491,41.452511 247.723241,44.3450328 L247.655678,162.744016 C247.653989,165.635976 245.28091,168.001461 242.383107,167.999776"
                                  fill="#8B1D41" mask="url(#mask-4)"></path>
                            <polygon fill="#FFFFFF" mask="url(#mask-4)"
                                     points="241.73272 156.131896 162.234283 156.086384 162.294525 50.4104508 241.793525 50.4559625"></polygon>
                            <path d="M205.152,162.088591 C205.150873,163.818036 203.745042,165.219347 202.012103,165.218785 C200.279164,165.217662 198.875021,163.814665 198.875584,162.08522 C198.87671,160.355213 200.282542,158.953902 202.015481,158.955025 C203.748983,158.95615 205.153125,160.358585 205.152,162.088591"
                                  fill="#F2F3F2" mask="url(#mask-4)"></path>
                            <path d="M235.904122,110.925793 L168.287409,110.925793 C166.600074,110.925793 165.23309,109.560441 165.23309,107.876508 L165.23309,88.7739532 C165.23309,87.0894582 166.600074,85.7235452 168.287409,85.7235452 L235.904122,85.7235452 C237.591458,85.7235452 238.959567,87.0894582 238.959567,88.7739532 L238.959567,107.876508 C238.959567,109.560441 237.591458,110.925793 235.904122,110.925793"
                                  fill="#F2F3F2" mask="url(#mask-4)"></path>
                            <path d="M235.904122,153.418555 L168.287409,153.418555 C166.600074,153.418555 165.23309,152.053204 165.23309,150.369271 L165.23309,136.527532 C165.23309,134.843037 166.600074,133.478809 168.287409,133.478809 L235.904122,133.478809 C237.591458,133.478809 238.959567,134.843037 238.959567,136.527532 L238.959567,150.369271 C238.959567,152.053204 237.591458,153.418555 235.904122,153.418555"
                                  fill="#F2F3F2" mask="url(#mask-4)"></path>
                            <path d="M236.406663,120.442515 L167.78498,120.442515 C166.375208,120.442515 165.232302,119.301913 165.232302,117.894983 C165.232302,116.488054 166.375208,115.347452 167.78498,115.347452 L236.406663,115.347452 C237.816436,115.347452 238.959342,116.488054 238.959342,117.894983 C238.959342,119.301913 237.816436,120.442515 236.406663,120.442515"
                                  fill="#F2F3F2" mask="url(#mask-4)"></path>
                            <path d="M236.324746,65.350202 L212.529207,65.350202 C211.119435,65.350202 209.976528,64.2096 209.976528,62.8026702 C209.976528,61.3951786 211.119435,60.2545766 212.529207,60.2545766 L236.324746,60.2545766 C237.734518,60.2545766 238.877425,61.3951786 238.877425,62.8026702 C238.877425,64.2096 237.734518,65.350202 236.324746,65.350202"
                                  fill="#F2F3F2" mask="url(#mask-4)"></path>
                            <path d="M236.324746,73.9928187 L212.529207,73.9928187 C211.119435,73.9928187 209.976528,72.8522167 209.976528,71.445287 C209.976528,70.0383572 211.119435,68.8977552 212.529207,68.8977552 L236.324746,68.8977552 C237.734518,68.8977552 238.877425,70.0383572 238.877425,71.445287 C238.877425,72.8522167 237.734518,73.9928187 236.324746,73.9928187"
                                  fill="#F2F3F2" mask="url(#mask-4)"></path>
                            <path d="M236.406663,129.056645 L167.78498,129.056645 C166.375208,129.056645 165.232302,127.916605 165.232302,126.509675 C165.232302,125.102183 166.375208,123.962143 167.78498,123.962143 L236.406663,123.962143 C237.816436,123.962143 238.959342,125.102183 238.959342,126.509675 C238.959342,127.916605 237.816436,129.056645 236.406663,129.056645"
                                  fill="#F2F3F2" mask="url(#mask-4)"></path>
                            <path d="M234.156827,162.741038 L234.156827,87.0724896 C234.156827,84.1676067 236.515268,81.8133592 239.42602,81.8133592 L247.702239,81.8133592 L247.702802,80.6896134 L239.42602,80.6896134 C235.8999,80.6896134 233.03081,83.5529177 233.03081,87.0724896 L233.03081,162.741038 C233.03081,164.919419 234.131491,166.844396 235.805314,167.996797 L239.392802,167.997921 C236.497814,167.979941 234.156827,165.63356 234.156827,162.741038"
                                  fill="#FFFFFF" mask="url(#mask-4)"></path>
                            <path d="M271.260414,167.999775 L239.426245,167.999775 C236.515493,167.999775 234.157052,165.645528 234.157052,162.741207 L234.157052,87.0726582 C234.157052,84.1677753 236.515493,81.8129659 239.426245,81.8129659 L271.260414,81.8129659 C274.170603,81.8129659 276.53017,84.1677753 276.53017,87.0726582 L276.53017,162.741207 C276.53017,165.645528 274.170603,167.999775 271.260414,167.999775"
                                  fill="#C41F3E" mask="url(#mask-4)"></path>
                            <polygon fill="#FFFFFF" mask="url(#mask-4)"
                                     points="236.816421 157.763237 273.869675 157.763237 273.869675 92.0280401 236.816421 92.0280401"></polygon>
                            <path d="M258.675155,86.7120482 C258.675155,86.9148843 258.49274,87.0806368 258.269789,87.0806368 L252.416757,87.0806368 C252.193805,87.0806368 252.011391,86.9148843 252.011391,86.7120482 C252.011391,86.509212 252.193805,86.3428977 252.416757,86.3428977 L258.269789,86.3428977 C258.49274,86.3428977 258.675155,86.509212 258.675155,86.7120482"
                                  fill="#F2F3F2" mask="url(#mask-4)"></path>
                            <path d="M258.398605,162.928704 C258.398605,164.612637 257.030496,165.97855 255.34316,165.97855 C253.655825,165.97855 252.287715,164.612637 252.287715,162.928704 C252.287715,161.244771 253.655825,159.879419 255.34316,159.879419 C257.030496,159.879419 258.398605,161.244771 258.398605,162.928704"
                                  fill="#F2F3F2" mask="url(#mask-4)"></path>
                            <path d="M268.457984,124.673025 L242.369877,124.673025 C240.942088,124.673025 239.656177,123.632436 239.532316,122.212583 C239.393253,120.611245 240.653828,119.268931 242.230251,119.268931 L268.317795,119.268931 C269.745584,119.268931 271.031495,120.308958 271.155356,121.729373 C271.294982,123.330148 270.033281,124.673025 268.457984,124.673025"
                                  fill="#F2F3F2" mask="url(#mask-4)"></path>
                            <path d="M268.454156,132.779615 L242.37393,132.779615 C240.946142,132.779615 239.660231,131.738464 239.536932,130.319173 C239.397306,128.717835 240.658445,127.375521 242.233741,127.375521 L268.313967,127.375521 C269.741755,127.375521 271.027666,128.415548 271.151528,129.835963 C271.291154,131.436738 270.029453,132.779615 268.454156,132.779615"
                                  fill="#F2F3F2" mask="url(#mask-4)"></path>
                            <path d="M267.922451,150.023719 L242.768374,150.023719 C240.978008,150.023719 239.525447,148.575211 239.525447,146.787331 L239.525447,138.718274 C239.525447,136.930395 240.978008,135.481886 242.768374,135.481886 L267.922451,135.481886 C269.713943,135.481886 271.165941,136.930395 271.165941,138.718274 L271.165941,146.787331 C271.165941,148.575211 269.713943,150.023719 267.922451,150.023719"
                                  fill="#F2F3F2" mask="url(#mask-4)"></path>
                            <path d="M271.161943,155.428431 C271.161943,153.936096 269.949224,152.726384 268.453874,152.726384 L242.23346,152.726384 C240.73811,152.726384 239.526517,153.936096 239.526517,155.428431 C239.526517,156.431374 240.080517,157.29722 240.8935,157.763013 L269.793834,157.763013 C270.607943,157.29722 271.161943,156.431374 271.161943,155.428431"
                                  fill="#F2F3F2" mask="url(#mask-4)"></path>
                        </g>
                        <g id="Group-69" transform="translate(26.971053, 16.727273)">
                            <path d="M60.0861951,30.3496735 C60.0861951,46.8851114 46.6721365,60.2893059 30.125093,60.2893059 C13.5774869,60.2893059 0.163428285,46.8851114 0.163428285,30.3496735 C0.163428285,13.8147978 13.5774869,0.410603243 30.125093,0.410603243 C46.6721365,0.410603243 60.0861951,13.8147978 60.0861951,30.3496735"
                                  fill="#F2F3F2"></path>
                            <path d="M43.6041853,35.4253795 C40.9263243,42.8003849 32.7723499,46.6090335 25.3924799,43.9331416 C18.0126099,41.2572497 14.2005959,33.1092714 16.8790195,25.7348281 C19.5568806,18.3603849 27.7102924,14.5511741 35.0901624,17.2270659 C42.470595,19.90352 46.2820464,28.0509362 43.6041853,35.4253795 M36.6473724,11.5110011 C26.3713619,8.05763892 15.0714633,13.4858768 11.3415854,23.6576389 C7.89468318,33.0569903 11.9080993,43.3535524 20.3551757,48.0998876 L12.1702597,70.6403416 C11.5581771,72.3262659 12.4087918,74.2151308 14.0993322,74.8183308 C14.1184598,74.8256389 14.13815,74.8323849 14.1572776,74.8385686 C14.2675424,74.8773578 14.3783699,74.9105254 14.4897599,74.9408822 C16.1229176,75.3833038 17.8218967,74.4838443 18.3996621,72.8934876 L26.5828904,50.358093 C36.0904223,52.126093 45.7566006,46.8237795 49.1635599,37.441293 C53.0110162,26.8462227 47.3987595,15.1245795 36.6473724,11.5110011"
                                  fill="#C41F3E"></path>
                            <path d="M36.6472599,11.5109449 C47.3986469,15.1245232 53.0109036,26.8461665 49.16401,37.4412368 C45.756488,46.8237232 36.0903098,52.1260368 26.5827779,50.3580368 L24.9974391,54.7249124 L25.6044585,54.6085449 L26.9304497,50.9573016 C28.0246598,51.1360692 29.1363097,51.2260151 30.2423338,51.2260151 L30.2434589,51.2260151 C38.9037516,51.2260151 46.7083664,45.7589881 49.6630148,37.622253 C51.5768978,32.3514205 51.288859,26.6668368 48.8523429,21.6146854 C46.4163895,16.5647827 42.1419382,12.7977341 36.8165952,11.0078097 C34.709186,10.2994854 32.5162654,9.94082595 30.2997165,9.94082595 C25.1026408,9.94082595 20.2121689,11.8971503 16.4879168,15.2077232 L16.60437,15.8154205 C21.8509524,11.0094962 29.4957956,9.10770162 36.6472599,11.5109449"
                                  fill="#FFFFFF"></path>
                            <path d="M30.2424463,16.9020238 C31.8311605,16.9020238 33.4013097,17.1797319 34.909013,17.7261535 C38.3452263,18.9719049 41.0900339,21.4802724 42.6382426,24.7891589 C44.1858888,28.0980454 44.3518487,31.8111265 43.1051806,35.2442508 C41.1474166,40.6359481 35.9773445,44.2585211 30.2407586,44.2585211 C28.6514818,44.2585211 27.0813326,43.980813 25.5736293,43.4343914 C24.0259831,42.8727914 22.6409214,42.0599049 21.447698,41.0581319 L21.6024064,41.8642724 C22.7247452,42.7215697 23.9944789,43.4259589 25.3924799,43.9330292 C32.7723499,46.6089211 40.9263243,42.8002724 43.6041853,35.425267 C46.2820464,28.0508238 42.470595,19.9034076 35.0901624,17.2275157 C28.5760966,14.8647481 21.4611998,17.558067 18.0390509,23.2943697 L18.1937593,24.1010724 C20.5543276,19.7274508 25.1764508,16.9020238 30.2424463,16.9020238"
                                  fill="#FFFFFF"></path>
                            <polygon fill="#8B1D41"
                                     points="19.4700189 69.9456216 13.2423042 67.6874162 14.505287 64.2093189 20.7335642 66.4675243"></polygon>
                            <path d="M171.336639,51.3231568 C171.336639,58.9421405 165.15618,65.1186162 157.53159,65.1186162 C149.906437,65.1186162 143.725978,58.9421405 143.725978,51.3231568 C143.725978,43.704173 149.906437,37.5276973 157.53159,37.5276973 C165.15618,37.5276973 171.336639,43.704173 171.336639,51.3231568"
                                  fill="#F2F3F2"></path>
                            <path d="M163.742427,53.6621449 C162.508698,57.059853 158.751254,58.8154854 155.351046,57.5821016 C151.950275,56.34928 150.193913,52.5951611 151.427642,49.1968908 C152.661933,45.7986205 156.418815,44.0435503 159.819023,45.2769341 C163.219794,46.5097557 164.976156,50.2638746 163.742427,53.6621449 M160.53687,42.6426422 C155.802232,41.0517232 150.595592,43.5527827 148.87636,48.2395286 C147.288209,52.5704259 149.137396,57.3150746 153.029858,59.5018854 L149.258349,69.8878314 C148.976499,70.6647395 149.368052,71.5355286 150.147219,71.8132368 C150.15622,71.8166097 150.164659,71.8194205 150.174223,71.8227935 C150.224855,71.8402205 150.276049,71.8553989 150.326681,71.8700151 C151.07997,72.0735178 151.862513,71.6592043 152.128611,70.926707 L155.899557,60.5424476 C160.280335,61.3570205 164.734248,58.9138638 166.303835,54.5908368 C168.076512,49.7090205 165.49035,44.3077665 160.53687,42.6426422"
                                  fill="#C41F3E"></path>
                            <path d="M160.536701,42.642867 C165.490744,44.3079914 168.076343,49.7086832 166.303666,54.5910616 C164.73408,58.9140886 160.280167,61.3572454 155.899388,60.5426724 L155.168602,62.5546508 L155.448203,62.5012454 L156.05916,60.8186941 C156.563791,60.9013319 157.076297,60.9423697 157.585428,60.9423697 L157.585991,60.9423697 C161.576341,60.9423697 165.172326,58.4233211 166.53376,54.6742616 C167.415879,52.2457211 167.283111,49.6260454 166.160209,47.2986941 C165.037871,44.9713427 163.068293,43.2359481 160.614899,42.4112562 C159.643331,42.08464 158.632945,41.9193643 157.611869,41.9193643 C155.216984,41.9193643 152.963868,42.8205103 151.247449,44.3462184 L151.301456,44.6261751 C153.718844,42.4118184 157.241694,41.5354076 160.536701,42.642867"
                                  fill="#FFFFFF"></path>
                            <path d="M157.585372,45.1270616 C158.317846,45.1270616 159.041318,45.2546724 159.735537,45.5065211 C161.319188,46.0804886 162.583858,47.2362941 163.296642,48.7608778 C164.010551,50.2854616 164.087061,51.9966832 163.512109,53.5786076 C162.6103,56.0628022 160.227791,57.7318616 157.584809,57.7318616 C156.852336,57.7318616 156.128863,57.6042508 155.434645,57.3524022 C154.720736,57.0938076 154.082775,56.7188454 153.533138,56.2573103 L153.604585,56.6288995 C154.121593,57.0240995 154.706671,57.348467 155.350821,57.5823265 C158.751029,58.8151481 162.508473,57.0600778 163.742202,53.6623697 C164.976494,50.2640995 163.220132,46.5099805 159.819361,45.2771589 C156.817456,44.1882508 153.539327,45.4295049 151.962426,48.0722292 L152.033874,48.4438184 C153.121333,46.4290292 155.251245,45.1270616 157.585372,45.1270616"
                                  fill="#FFFFFF"></path>
                            <polygon fill="#8B1D41"
                                     points="152.621653 69.5679049 149.751953 68.5273427 150.334782 66.9246184 153.203919 67.9651805"></polygon>
                            <path d="M238.55894,88.5118141 C238.55894,94.0766573 234.044268,98.5885708 228.474767,98.5885708 C222.906392,98.5885708 218.391158,94.0766573 218.391158,88.5118141 C218.391158,82.9469708 222.906392,78.4356195 228.474767,78.4356195 C234.044268,78.4356195 238.55894,82.9469708 238.55894,88.5118141"
                                  fill="#F2F3F2"></path>
                            <path d="M233.011773,90.2202249 C232.110526,92.7021708 229.366844,93.9839005 226.881946,93.0838789 C224.398174,92.182733 223.115501,89.4405059 224.01731,86.95856 C224.917994,84.4766141 227.662239,83.1948843 230.146012,84.0954681 C232.630347,84.9960519 233.913582,87.7382789 233.011773,90.2202249 M230.670332,82.1717492 C227.211616,81.0091978 223.409166,82.8362249 222.153496,86.2597924 C220.993465,89.4230789 222.34421,92.8882465 225.187468,94.4859114 L222.431971,102.07229 C222.226069,102.639511 222.512982,103.275879 223.081747,103.478257 C223.087935,103.481068 223.094686,103.483317 223.101437,103.485565 C223.138004,103.497933 223.175697,103.509738 223.212827,103.519295 C223.763026,103.66883 224.334603,103.365825 224.529254,102.830646 L227.283063,95.2459546 C230.482994,95.8407222 233.736371,94.0564195 234.8829,90.8987546 C236.17795,87.33296 234.289383,83.3877059 230.670332,82.1717492"
                                  fill="#C41F3E"></path>
                            <path d="M230.670276,82.1715243 C234.289326,83.3874811 236.177894,87.3332973 234.882844,90.8985297 C233.736314,94.0567568 230.482938,95.8404973 227.283007,95.2462919 L226.749122,96.7157838 L226.9539,96.6764324 L227.400585,95.4475459 C227.76851,95.5082595 228.142623,95.5380541 228.515048,95.5380541 C231.429753,95.5380541 234.056983,93.6980973 235.051054,90.9598054 C235.695203,89.1861838 235.59844,87.2720216 234.778205,85.5720432 C233.958532,83.8720649 232.519463,82.6049514 230.727659,82.0023135 C230.018251,81.7639568 229.280151,81.6430919 228.534175,81.6430919 C226.785127,81.6430919 225.13903,82.3013838 223.885049,83.4155892 L223.924992,83.6202162 C225.690355,82.0028757 228.263576,81.3631351 230.670276,82.1715243"
                                  fill="#FFFFFF"></path>
                            <path d="M228.514992,83.9859589 C229.049439,83.9859589 229.57826,84.0792778 230.085703,84.2631049 C231.241797,84.6824778 232.165546,85.5268454 232.686492,86.6404886 C233.207999,87.7541319 233.263132,89.0038184 232.84345,90.1590616 C232.184674,91.9737211 230.445189,93.1930508 228.513866,93.1930508 C227.979419,93.1930508 227.450598,93.0997319 226.943155,92.9159049 C226.422209,92.7270184 225.956397,92.4532454 225.554718,92.1159481 L225.607037,92.3874724 C225.984525,92.6758616 226.412083,92.9130941 226.882397,93.0839914 C229.366731,93.984013 232.110976,92.7022832 233.01166,90.2203373 C233.91347,87.7383914 232.630234,84.9961643 230.145899,84.0955805 C227.954104,83.3001211 225.559218,84.2068886 224.407625,86.1373535 L224.459945,86.4088778 C225.254302,84.9365751 226.809824,83.9859589 228.514992,83.9859589"
                                  fill="#FFFFFF"></path>
                            <polygon fill="#8B1D41"
                                     points="224.889022 101.83843 222.792864 101.078387 223.218171 99.9074032 225.314329 100.668009"></polygon>
                        </g>
                    </g>
                </g>
            </g>
        </g>
    </g>
</svg>
